<mxfile host="app.diagrams.net" agent="Mozilla/5.0 (Macintosh; Intel Mac OS X 10_15_7) AppleWebKit/537.36 (KHTML, like Gecko) Chrome/129.0.0.0 Safari/537.36" version="24.7.17">
  <diagram id="C5RBs43oDa-KdzZeNtuy" name="Page-1">
    <mxGraphModel dx="2998" dy="1373" grid="1" gridSize="10" guides="1" tooltips="1" connect="1" arrows="1" fold="1" page="1" pageScale="1" pageWidth="827" pageHeight="1169" math="0" shadow="0">
      <root>
        <mxCell id="WIyWlLk6GJQsqaUBKTNV-0" />
        <mxCell id="WIyWlLk6GJQsqaUBKTNV-1" parent="WIyWlLk6GJQsqaUBKTNV-0" />
        <mxCell id="WIyWlLk6GJQsqaUBKTNV-2" value="" style="rounded=0;html=1;jettySize=auto;orthogonalLoop=1;fontSize=11;endArrow=block;endFill=0;endSize=8;strokeWidth=1;shadow=0;labelBackgroundColor=none;edgeStyle=orthogonalEdgeStyle;" parent="WIyWlLk6GJQsqaUBKTNV-1" source="WIyWlLk6GJQsqaUBKTNV-3" edge="1">
          <mxGeometry relative="1" as="geometry">
            <mxPoint x="220" y="170" as="targetPoint" />
          </mxGeometry>
        </mxCell>
        <mxCell id="WIyWlLk6GJQsqaUBKTNV-3" value="START" style="rounded=1;whiteSpace=wrap;html=1;fontSize=12;glass=0;strokeWidth=1;shadow=0;" parent="WIyWlLk6GJQsqaUBKTNV-1" vertex="1">
          <mxGeometry x="160" y="80" width="120" height="40" as="geometry" />
        </mxCell>
        <mxCell id="C5WWpzhARNy9tgETvJQb-0" value="" style="edgeStyle=orthogonalEdgeStyle;rounded=0;orthogonalLoop=1;jettySize=auto;html=1;" edge="1" parent="WIyWlLk6GJQsqaUBKTNV-1" source="WIyWlLk6GJQsqaUBKTNV-7" target="WIyWlLk6GJQsqaUBKTNV-12">
          <mxGeometry relative="1" as="geometry" />
        </mxCell>
        <mxCell id="WIyWlLk6GJQsqaUBKTNV-7" value="Generate 2 random cards for User and Computer" style="rounded=1;whiteSpace=wrap;html=1;fontSize=10;glass=0;strokeWidth=1;shadow=0;" parent="WIyWlLk6GJQsqaUBKTNV-1" vertex="1">
          <mxGeometry x="160" y="170" width="120" height="40" as="geometry" />
        </mxCell>
        <mxCell id="WIyWlLk6GJQsqaUBKTNV-8" value="No" style="rounded=0;html=1;jettySize=auto;orthogonalLoop=1;fontSize=11;endArrow=block;endFill=0;endSize=8;strokeWidth=1;shadow=0;labelBackgroundColor=none;edgeStyle=orthogonalEdgeStyle;" parent="WIyWlLk6GJQsqaUBKTNV-1" source="WIyWlLk6GJQsqaUBKTNV-10" edge="1">
          <mxGeometry x="0.3333" y="20" relative="1" as="geometry">
            <mxPoint as="offset" />
            <mxPoint x="220" y="480" as="targetPoint" />
          </mxGeometry>
        </mxCell>
        <mxCell id="C5WWpzhARNy9tgETvJQb-4" value="" style="edgeStyle=orthogonalEdgeStyle;rounded=0;orthogonalLoop=1;jettySize=auto;html=1;entryX=0;entryY=0.5;entryDx=0;entryDy=0;" edge="1" parent="WIyWlLk6GJQsqaUBKTNV-1" source="WIyWlLk6GJQsqaUBKTNV-10" target="C5WWpzhARNy9tgETvJQb-5">
          <mxGeometry relative="1" as="geometry">
            <mxPoint x="420" y="380" as="targetPoint" />
          </mxGeometry>
        </mxCell>
        <mxCell id="WIyWlLk6GJQsqaUBKTNV-10" value="User or computer have a&amp;nbsp;&lt;div&gt;Black Jack ( ace + 10 ) ?&amp;nbsp;&lt;/div&gt;" style="rhombus;whiteSpace=wrap;html=1;shadow=0;fontFamily=Helvetica;fontSize=10;align=center;strokeWidth=1;spacing=6;spacingTop=-4;" parent="WIyWlLk6GJQsqaUBKTNV-1" vertex="1">
          <mxGeometry x="130" y="340" width="180" height="80" as="geometry" />
        </mxCell>
        <mxCell id="C5WWpzhARNy9tgETvJQb-2" value="" style="edgeStyle=orthogonalEdgeStyle;rounded=0;orthogonalLoop=1;jettySize=auto;html=1;" edge="1" parent="WIyWlLk6GJQsqaUBKTNV-1" source="WIyWlLk6GJQsqaUBKTNV-12" target="WIyWlLk6GJQsqaUBKTNV-10">
          <mxGeometry relative="1" as="geometry" />
        </mxCell>
        <mxCell id="WIyWlLk6GJQsqaUBKTNV-12" value="Add up cards value score" style="rounded=1;whiteSpace=wrap;html=1;fontSize=10;glass=0;strokeWidth=1;shadow=0;" parent="WIyWlLk6GJQsqaUBKTNV-1" vertex="1">
          <mxGeometry x="160" y="260" width="120" height="40" as="geometry" />
        </mxCell>
        <mxCell id="C5WWpzhARNy9tgETvJQb-5" value="User or computer Win the game" style="rounded=1;whiteSpace=wrap;html=1;fontSize=10;" vertex="1" parent="WIyWlLk6GJQsqaUBKTNV-1">
          <mxGeometry x="380" y="360" width="120" height="40" as="geometry" />
        </mxCell>
        <mxCell id="C5WWpzhARNy9tgETvJQb-19" value="" style="edgeStyle=orthogonalEdgeStyle;rounded=0;orthogonalLoop=1;jettySize=auto;html=1;" edge="1" parent="WIyWlLk6GJQsqaUBKTNV-1" source="C5WWpzhARNy9tgETvJQb-9" target="C5WWpzhARNy9tgETvJQb-16">
          <mxGeometry relative="1" as="geometry" />
        </mxCell>
        <mxCell id="C5WWpzhARNy9tgETvJQb-35" value="" style="edgeStyle=orthogonalEdgeStyle;rounded=0;orthogonalLoop=1;jettySize=auto;html=1;" edge="1" parent="WIyWlLk6GJQsqaUBKTNV-1" source="C5WWpzhARNy9tgETvJQb-9" target="C5WWpzhARNy9tgETvJQb-34">
          <mxGeometry relative="1" as="geometry" />
        </mxCell>
        <mxCell id="C5WWpzhARNy9tgETvJQb-9" value="Is User score over 21" style="rhombus;whiteSpace=wrap;html=1;" vertex="1" parent="WIyWlLk6GJQsqaUBKTNV-1">
          <mxGeometry x="140" y="480" width="160" height="80" as="geometry" />
        </mxCell>
        <mxCell id="C5WWpzhARNy9tgETvJQb-22" value="" style="edgeStyle=orthogonalEdgeStyle;rounded=0;orthogonalLoop=1;jettySize=auto;html=1;" edge="1" parent="WIyWlLk6GJQsqaUBKTNV-1" source="C5WWpzhARNy9tgETvJQb-16" target="C5WWpzhARNy9tgETvJQb-21">
          <mxGeometry relative="1" as="geometry" />
        </mxCell>
        <mxCell id="C5WWpzhARNy9tgETvJQb-26" value="" style="edgeStyle=orthogonalEdgeStyle;rounded=0;orthogonalLoop=1;jettySize=auto;html=1;entryX=0;entryY=0.5;entryDx=0;entryDy=0;" edge="1" parent="WIyWlLk6GJQsqaUBKTNV-1" source="C5WWpzhARNy9tgETvJQb-16" target="C5WWpzhARNy9tgETvJQb-25">
          <mxGeometry relative="1" as="geometry">
            <Array as="points">
              <mxPoint x="420" y="430" />
            </Array>
          </mxGeometry>
        </mxCell>
        <mxCell id="C5WWpzhARNy9tgETvJQb-16" value="Do you have an Ace ?" style="rhombus;whiteSpace=wrap;html=1;fontSize=10;" vertex="1" parent="WIyWlLk6GJQsqaUBKTNV-1">
          <mxGeometry x="360" y="480" width="120" height="80" as="geometry" />
        </mxCell>
        <mxCell id="C5WWpzhARNy9tgETvJQb-20" value="Yes" style="text;html=1;align=center;verticalAlign=middle;resizable=0;points=[];autosize=1;strokeColor=none;fillColor=none;" vertex="1" parent="WIyWlLk6GJQsqaUBKTNV-1">
          <mxGeometry x="290" y="488" width="40" height="30" as="geometry" />
        </mxCell>
        <mxCell id="C5WWpzhARNy9tgETvJQb-31" value="" style="edgeStyle=orthogonalEdgeStyle;rounded=0;orthogonalLoop=1;jettySize=auto;html=1;" edge="1" parent="WIyWlLk6GJQsqaUBKTNV-1" source="C5WWpzhARNy9tgETvJQb-21" target="C5WWpzhARNy9tgETvJQb-30">
          <mxGeometry relative="1" as="geometry" />
        </mxCell>
        <mxCell id="C5WWpzhARNy9tgETvJQb-21" value="count it as 1 point" style="rounded=1;whiteSpace=wrap;html=1;fontSize=10;" vertex="1" parent="WIyWlLk6GJQsqaUBKTNV-1">
          <mxGeometry x="560" y="500" width="120" height="40" as="geometry" />
        </mxCell>
        <mxCell id="C5WWpzhARNy9tgETvJQb-23" value="Yes" style="text;html=1;align=center;verticalAlign=middle;resizable=0;points=[];autosize=1;strokeColor=none;fillColor=none;" vertex="1" parent="WIyWlLk6GJQsqaUBKTNV-1">
          <mxGeometry x="480" y="490" width="40" height="30" as="geometry" />
        </mxCell>
        <mxCell id="C5WWpzhARNy9tgETvJQb-25" value="You Loose" style="rounded=1;whiteSpace=wrap;html=1;fontSize=10;" vertex="1" parent="WIyWlLk6GJQsqaUBKTNV-1">
          <mxGeometry x="560" y="410" width="120" height="40" as="geometry" />
        </mxCell>
        <mxCell id="C5WWpzhARNy9tgETvJQb-28" value="No" style="text;html=1;align=center;verticalAlign=middle;resizable=0;points=[];autosize=1;strokeColor=none;fillColor=none;" vertex="1" parent="WIyWlLk6GJQsqaUBKTNV-1">
          <mxGeometry x="410" y="458" width="40" height="30" as="geometry" />
        </mxCell>
        <mxCell id="C5WWpzhARNy9tgETvJQb-29" value="Yes" style="text;html=1;align=center;verticalAlign=middle;resizable=0;points=[];autosize=1;strokeColor=none;fillColor=none;" vertex="1" parent="WIyWlLk6GJQsqaUBKTNV-1">
          <mxGeometry x="300" y="348" width="40" height="30" as="geometry" />
        </mxCell>
        <mxCell id="C5WWpzhARNy9tgETvJQb-32" style="edgeStyle=orthogonalEdgeStyle;rounded=0;orthogonalLoop=1;jettySize=auto;html=1;exitX=0.5;exitY=0;exitDx=0;exitDy=0;entryX=1;entryY=0.5;entryDx=0;entryDy=0;" edge="1" parent="WIyWlLk6GJQsqaUBKTNV-1" source="C5WWpzhARNy9tgETvJQb-30" target="C5WWpzhARNy9tgETvJQb-25">
          <mxGeometry relative="1" as="geometry" />
        </mxCell>
        <mxCell id="C5WWpzhARNy9tgETvJQb-30" value="&lt;font style=&quot;font-size: 10px;&quot;&gt;If the ace counts&lt;br/&gt;as a 1 instead of 11, are they&lt;br/&gt;still over 21?&lt;/font&gt;" style="rhombus;whiteSpace=wrap;html=1;rounded=1;" vertex="1" parent="WIyWlLk6GJQsqaUBKTNV-1">
          <mxGeometry x="730" y="460" width="170" height="120" as="geometry" />
        </mxCell>
        <mxCell id="C5WWpzhARNy9tgETvJQb-33" value="Yes" style="text;html=1;align=center;verticalAlign=middle;resizable=0;points=[];autosize=1;strokeColor=none;fillColor=none;" vertex="1" parent="WIyWlLk6GJQsqaUBKTNV-1">
          <mxGeometry x="810" y="438" width="40" height="30" as="geometry" />
        </mxCell>
        <mxCell id="C5WWpzhARNy9tgETvJQb-38" value="" style="edgeStyle=orthogonalEdgeStyle;rounded=0;orthogonalLoop=1;jettySize=auto;html=1;" edge="1" parent="WIyWlLk6GJQsqaUBKTNV-1" source="C5WWpzhARNy9tgETvJQb-34" target="C5WWpzhARNy9tgETvJQb-37">
          <mxGeometry relative="1" as="geometry" />
        </mxCell>
        <mxCell id="C5WWpzhARNy9tgETvJQb-43" value="" style="edgeStyle=orthogonalEdgeStyle;rounded=0;orthogonalLoop=1;jettySize=auto;html=1;" edge="1" parent="WIyWlLk6GJQsqaUBKTNV-1" source="C5WWpzhARNy9tgETvJQb-34" target="C5WWpzhARNy9tgETvJQb-42">
          <mxGeometry relative="1" as="geometry" />
        </mxCell>
        <mxCell id="C5WWpzhARNy9tgETvJQb-34" value="Ask the user if he want&amp;nbsp;&lt;div&gt;another card&lt;/div&gt;" style="rhombus;whiteSpace=wrap;html=1;fontSize=10;" vertex="1" parent="WIyWlLk6GJQsqaUBKTNV-1">
          <mxGeometry x="140" y="640" width="160" height="80" as="geometry" />
        </mxCell>
        <mxCell id="C5WWpzhARNy9tgETvJQb-36" style="edgeStyle=orthogonalEdgeStyle;rounded=0;orthogonalLoop=1;jettySize=auto;html=1;exitX=0.5;exitY=1;exitDx=0;exitDy=0;entryX=0.715;entryY=0.167;entryDx=0;entryDy=0;entryPerimeter=0;" edge="1" parent="WIyWlLk6GJQsqaUBKTNV-1" source="C5WWpzhARNy9tgETvJQb-30" target="C5WWpzhARNy9tgETvJQb-34">
          <mxGeometry relative="1" as="geometry" />
        </mxCell>
        <mxCell id="C5WWpzhARNy9tgETvJQb-39" style="edgeStyle=orthogonalEdgeStyle;rounded=0;orthogonalLoop=1;jettySize=auto;html=1;exitX=1;exitY=0.5;exitDx=0;exitDy=0;entryX=1;entryY=0.5;entryDx=0;entryDy=0;" edge="1" parent="WIyWlLk6GJQsqaUBKTNV-1" source="C5WWpzhARNy9tgETvJQb-37" target="WIyWlLk6GJQsqaUBKTNV-12">
          <mxGeometry relative="1" as="geometry">
            <Array as="points">
              <mxPoint x="940" y="680" />
              <mxPoint x="940" y="280" />
            </Array>
          </mxGeometry>
        </mxCell>
        <mxCell id="C5WWpzhARNy9tgETvJQb-37" value="Draw another card" style="rounded=1;whiteSpace=wrap;html=1;fontSize=10;" vertex="1" parent="WIyWlLk6GJQsqaUBKTNV-1">
          <mxGeometry x="400" y="660" width="120" height="40" as="geometry" />
        </mxCell>
        <mxCell id="C5WWpzhARNy9tgETvJQb-40" value="Yes" style="text;html=1;align=center;verticalAlign=middle;resizable=0;points=[];autosize=1;strokeColor=none;fillColor=none;" vertex="1" parent="WIyWlLk6GJQsqaUBKTNV-1">
          <mxGeometry x="290" y="650" width="40" height="30" as="geometry" />
        </mxCell>
        <mxCell id="C5WWpzhARNy9tgETvJQb-41" value="No" style="text;html=1;align=center;verticalAlign=middle;resizable=0;points=[];autosize=1;strokeColor=none;fillColor=none;" vertex="1" parent="WIyWlLk6GJQsqaUBKTNV-1">
          <mxGeometry x="330" y="720" width="40" height="30" as="geometry" />
        </mxCell>
        <mxCell id="C5WWpzhARNy9tgETvJQb-45" value="" style="edgeStyle=orthogonalEdgeStyle;rounded=0;orthogonalLoop=1;jettySize=auto;html=1;" edge="1" parent="WIyWlLk6GJQsqaUBKTNV-1" source="C5WWpzhARNy9tgETvJQb-42" target="C5WWpzhARNy9tgETvJQb-44">
          <mxGeometry relative="1" as="geometry" />
        </mxCell>
        <mxCell id="C5WWpzhARNy9tgETvJQb-42" value="Computer Plays another card&lt;div style=&quot;font-size: 10px;&quot;&gt;until his score is under 17&lt;/div&gt;" style="rhombus;whiteSpace=wrap;html=1;fontSize=10;" vertex="1" parent="WIyWlLk6GJQsqaUBKTNV-1">
          <mxGeometry x="130" y="800" width="180" height="100" as="geometry" />
        </mxCell>
        <mxCell id="C5WWpzhARNy9tgETvJQb-47" value="" style="edgeStyle=orthogonalEdgeStyle;rounded=0;orthogonalLoop=1;jettySize=auto;html=1;" edge="1" parent="WIyWlLk6GJQsqaUBKTNV-1" source="C5WWpzhARNy9tgETvJQb-44" target="C5WWpzhARNy9tgETvJQb-46">
          <mxGeometry relative="1" as="geometry" />
        </mxCell>
        <mxCell id="C5WWpzhARNy9tgETvJQb-50" value="" style="edgeStyle=orthogonalEdgeStyle;rounded=0;orthogonalLoop=1;jettySize=auto;html=1;" edge="1" parent="WIyWlLk6GJQsqaUBKTNV-1" source="C5WWpzhARNy9tgETvJQb-44">
          <mxGeometry relative="1" as="geometry">
            <mxPoint x="220" y="1140" as="targetPoint" />
          </mxGeometry>
        </mxCell>
        <mxCell id="C5WWpzhARNy9tgETvJQb-44" value="&lt;font style=&quot;font-size: 10px;&quot;&gt;Has computer go over 21 ?&lt;/font&gt;" style="rhombus;whiteSpace=wrap;html=1;fontSize=10;" vertex="1" parent="WIyWlLk6GJQsqaUBKTNV-1">
          <mxGeometry x="130" y="980" width="180" height="100" as="geometry" />
        </mxCell>
        <mxCell id="C5WWpzhARNy9tgETvJQb-46" value="Computer Win" style="rounded=1;whiteSpace=wrap;html=1;fontSize=10;" vertex="1" parent="WIyWlLk6GJQsqaUBKTNV-1">
          <mxGeometry x="390" y="1010" width="120" height="40" as="geometry" />
        </mxCell>
        <mxCell id="C5WWpzhARNy9tgETvJQb-48" value="Yes" style="text;html=1;align=center;verticalAlign=middle;resizable=0;points=[];autosize=1;strokeColor=none;fillColor=none;" vertex="1" parent="WIyWlLk6GJQsqaUBKTNV-1">
          <mxGeometry x="300" y="998" width="40" height="30" as="geometry" />
        </mxCell>
        <mxCell id="C5WWpzhARNy9tgETvJQb-51" value="No&amp;nbsp;" style="text;html=1;align=center;verticalAlign=middle;resizable=0;points=[];autosize=1;strokeColor=none;fillColor=none;" vertex="1" parent="WIyWlLk6GJQsqaUBKTNV-1">
          <mxGeometry x="220" y="1088" width="40" height="30" as="geometry" />
        </mxCell>
        <mxCell id="C5WWpzhARNy9tgETvJQb-58" value="" style="edgeStyle=orthogonalEdgeStyle;rounded=0;orthogonalLoop=1;jettySize=auto;html=1;" edge="1" parent="WIyWlLk6GJQsqaUBKTNV-1" source="C5WWpzhARNy9tgETvJQb-55" target="C5WWpzhARNy9tgETvJQb-57">
          <mxGeometry relative="1" as="geometry" />
        </mxCell>
        <mxCell id="C5WWpzhARNy9tgETvJQb-60" value="" style="edgeStyle=orthogonalEdgeStyle;rounded=0;orthogonalLoop=1;jettySize=auto;html=1;" edge="1" parent="WIyWlLk6GJQsqaUBKTNV-1" source="C5WWpzhARNy9tgETvJQb-55" target="C5WWpzhARNy9tgETvJQb-59">
          <mxGeometry relative="1" as="geometry" />
        </mxCell>
        <mxCell id="C5WWpzhARNy9tgETvJQb-65" value="" style="edgeStyle=orthogonalEdgeStyle;rounded=0;orthogonalLoop=1;jettySize=auto;html=1;" edge="1" parent="WIyWlLk6GJQsqaUBKTNV-1" source="C5WWpzhARNy9tgETvJQb-55" target="C5WWpzhARNy9tgETvJQb-64">
          <mxGeometry relative="1" as="geometry" />
        </mxCell>
        <mxCell id="C5WWpzhARNy9tgETvJQb-55" value="&lt;font style=&quot;font-size: 10px;&quot;&gt;Compare user score with&amp;nbsp;&lt;/font&gt;&lt;div&gt;&lt;font style=&quot;font-size: 10px;&quot;&gt;computer score&amp;nbsp;&lt;/font&gt;&lt;div&gt;&lt;font style=&quot;font-size: 10px;&quot;&gt;to see if user score is Higher&amp;nbsp;&lt;/font&gt;&lt;/div&gt;&lt;/div&gt;" style="rhombus;whiteSpace=wrap;html=1;fontSize=10;" vertex="1" parent="WIyWlLk6GJQsqaUBKTNV-1">
          <mxGeometry x="110" y="1140" width="220" height="80" as="geometry" />
        </mxCell>
        <mxCell id="C5WWpzhARNy9tgETvJQb-57" value="Computer Win" style="rounded=1;whiteSpace=wrap;html=1;fontSize=10;" vertex="1" parent="WIyWlLk6GJQsqaUBKTNV-1">
          <mxGeometry x="-70" y="1160" width="120" height="40" as="geometry" />
        </mxCell>
        <mxCell id="C5WWpzhARNy9tgETvJQb-61" value="" style="edgeStyle=orthogonalEdgeStyle;rounded=0;orthogonalLoop=1;jettySize=auto;html=1;" edge="1" parent="WIyWlLk6GJQsqaUBKTNV-1" source="C5WWpzhARNy9tgETvJQb-59" target="C5WWpzhARNy9tgETvJQb-55">
          <mxGeometry relative="1" as="geometry" />
        </mxCell>
        <mxCell id="C5WWpzhARNy9tgETvJQb-59" value="User Win" style="rounded=1;whiteSpace=wrap;html=1;fontSize=10;" vertex="1" parent="WIyWlLk6GJQsqaUBKTNV-1">
          <mxGeometry x="390" y="1160" width="120" height="40" as="geometry" />
        </mxCell>
        <mxCell id="C5WWpzhARNy9tgETvJQb-62" value="Yes" style="text;html=1;align=center;verticalAlign=middle;resizable=0;points=[];autosize=1;strokeColor=none;fillColor=none;" vertex="1" parent="WIyWlLk6GJQsqaUBKTNV-1">
          <mxGeometry x="330" y="1148" width="40" height="30" as="geometry" />
        </mxCell>
        <mxCell id="C5WWpzhARNy9tgETvJQb-63" value="No" style="text;html=1;align=center;verticalAlign=middle;resizable=0;points=[];autosize=1;strokeColor=none;fillColor=none;" vertex="1" parent="WIyWlLk6GJQsqaUBKTNV-1">
          <mxGeometry x="80" y="1148" width="40" height="30" as="geometry" />
        </mxCell>
        <mxCell id="C5WWpzhARNy9tgETvJQb-64" value="It&#39;s a Draw" style="rounded=1;whiteSpace=wrap;html=1;fontSize=10;" vertex="1" parent="WIyWlLk6GJQsqaUBKTNV-1">
          <mxGeometry x="160" y="1260" width="120" height="30" as="geometry" />
        </mxCell>
      </root>
    </mxGraphModel>
  </diagram>
</mxfile>
